# Blender v2.91.0 OBJ File: ''
# www.blender.org
mtllib CornellBoxEmpty.mtl
o CornellBox-Original
v -0.505000 -0.000000 0.495000
v 0.500000 -0.000000 0.495000
v 0.500000 0.000000 -0.520000
v -0.495000 0.000000 -0.520000
v -0.510000 0.995000 0.495000
v -0.510000 0.995000 -0.520000
v 0.500000 0.995000 -0.520000
v 0.500000 0.995000 0.495000
v -0.495000 0.000000 -0.520000
v 0.500000 0.000000 -0.520000
v 0.500000 0.995000 -0.520000
v -0.510000 0.995000 -0.520000
v 0.500000 0.000000 -0.520000
v 0.500000 -0.000000 0.495000
v 0.500000 0.995000 0.495000
v 0.500000 0.995000 -0.520000
v -0.505000 -0.000000 0.495000
v -0.495000 0.000000 -0.520000
v -0.510000 0.995000 -0.520000
v -0.510000 0.995000 0.495000
v -0.120000 0.990000 0.080000
v -0.120000 0.990000 -0.110000
v 0.115000 0.990000 -0.110000
v 0.115000 0.990000 0.080000
vn 0.0000 1.0000 0.0000
vn 0.0000 -1.0000 -0.0000
vn 0.0000 -0.0000 1.0000
vn -1.0000 0.0000 0.0000
vn 0.9999 0.0100 0.0049
usemtl floor
s 1
f 1//1 2//1 3//1 4//1
usemtl ceiling
f 5//2 6//2 7//2 8//2
usemtl backWall
f 9//3 10//3 11//3 12//3
usemtl rightWall
f 13//4 14//4 15//4 16//4
usemtl leftWall
f 17//5 18//5 19//5 20//5
usemtl light
f 21//2 22//2 23//2 24//2
